<svg xmlns="http://www.w3.org/2000/svg" viewBox="60 624 1380 234" width="1380" height="234" role="img" aria-label="SHOWGUY"><path fill="#0d0d10" d="M 621.472656 675.585938 C 621.558594 675.722656 621.671875 675.757812 621.820312 675.691406 C 621.964844 675.625 622.023438 675.511719 621.988281 675.351562 L 611.441406 633.472656 C 611.40625 633.339844 611.433594 633.21875 611.515625 633.109375 C 611.601562 633 611.710938 632.945312 611.851562 632.945312 L 686.734375 632.945312 C 686.96875 632.949219 687.109375 633.066406 687.15625 633.296875 L 703.5625 723.355469 C 703.589844 723.480469 703.671875 723.546875 703.800781 723.550781 C 703.929688 723.554688 704.011719 723.496094 704.046875 723.367188 L 725.476562 633.707031 C 725.53125 633.484375 725.644531 633.300781 725.828125 633.160156 C 726.007812 633.015625 726.214844 632.945312 726.445312 632.945312 L 784.058594 632.945312 C 784.324219 632.945312 784.558594 633.027344 784.765625 633.191406 C 784.96875 633.355469 785.101562 633.566406 785.15625 633.824219 L 804.625 723.339844 C 804.660156 723.480469 804.753906 723.550781 804.902344 723.546875 C 805.046875 723.542969 805.136719 723.46875 805.164062 723.324219 L 822.90625 633.296875 C 822.925781 633.179688 822.980469 633.085938 823.070312 633.011719 C 823.160156 632.9375 823.261719 632.898438 823.375 632.898438 L 898.050781 632.898438 C 898.109375 632.898438 898.15625 632.921875 898.195312 632.964844 C 898.230469 633.011719 898.242188 633.0625 898.226562 633.121094 L 890.097656 667.191406 C 890.085938 667.210938 890.09375 667.226562 890.113281 667.234375 C 890.132812 667.246094 890.144531 667.242188 890.15625 667.222656 C 907.632812 642.085938 932.679688 629.675781 963.589844 627.816406 C 1003.199219 625.445312 1043.347656 638.496094 1057.734375 678.296875 C 1057.8125 678.484375 1057.953125 678.5625 1058.152344 678.523438 C 1058.355469 678.488281 1058.460938 678.367188 1058.464844 678.164062 L 1058.464844 633.691406 C 1058.464844 633.464844 1058.546875 633.269531 1058.707031 633.109375 C 1058.867188 632.949219 1059.058594 632.871094 1059.285156 632.871094 L 1131.765625 632.871094 C 1132.011719 632.871094 1132.21875 632.957031 1132.390625 633.125 C 1132.558594 633.292969 1132.644531 633.496094 1132.644531 633.734375 C 1132.792969 706.167969 1132.789062 752.847656 1132.632812 773.773438 C 1132.535156 786.3125 1137.3125 793.480469 1146.972656 795.277344 C 1157.078125 797.152344 1166.425781 793.886719 1169.808594 783.71875 C 1170.542969 781.511719 1170.90625 777.78125 1170.90625 772.527344 C 1170.945312 724.089844 1170.941406 677.636719 1170.894531 633.164062 C 1170.894531 633.035156 1170.9375 632.925781 1171.03125 632.832031 C 1171.121094 632.742188 1171.234375 632.695312 1171.363281 632.695312 L 1296.679688 632.695312 C 1296.890625 632.695312 1297.085938 632.753906 1297.261719 632.871094 C 1297.4375 632.988281 1297.566406 633.144531 1297.644531 633.339844 L 1324.058594 695.609375 C 1324.109375 695.738281 1324.203125 695.804688 1324.34375 695.804688 C 1324.480469 695.804688 1324.578125 695.738281 1324.628906 695.609375 L 1351.949219 633.632812 C 1352.050781 633.40625 1352.207031 633.226562 1352.417969 633.089844 C 1352.625 632.953125 1352.855469 632.886719 1353.105469 632.886719 L 1436.96875 632.886719 C 1437.042969 632.886719 1437.113281 632.90625 1437.175781 632.945312 C 1437.242188 632.980469 1437.292969 633.03125 1437.328125 633.097656 C 1437.367188 633.160156 1437.386719 633.230469 1437.386719 633.304688 C 1437.386719 633.378906 1437.371094 633.449219 1437.332031 633.515625 L 1360.574219 768.414062 C 1360.351562 768.804688 1360.238281 769.21875 1360.238281 769.65625 L 1360.238281 848.582031 C 1360.238281 848.742188 1360.183594 848.875 1360.074219 848.988281 C 1359.96875 849.097656 1359.835938 849.15625 1359.683594 849.15625 L 1284.066406 849.15625 C 1283.835938 849.15625 1283.640625 849.074219 1283.476562 848.910156 C 1283.3125 848.746094 1283.230469 848.550781 1283.230469 848.320312 L 1283.230469 771.195312 C 1283.230469 770.6875 1283.121094 770.199219 1282.894531 769.730469 L 1245.277344 692.226562 C 1245.222656 692.121094 1245.136719 692.085938 1245.019531 692.109375 C 1244.90625 692.136719 1244.84375 692.210938 1244.839844 692.328125 C 1244.800781 738.863281 1244.808594 768.105469 1244.867188 780.058594 C 1245.203125 841.800781 1184.398438 858.222656 1133.789062 854.472656 C 1120.417969 853.484375 1108.066406 850.335938 1096.726562 845.023438 C 1073.640625 834.195312 1060.6875 816.097656 1057.867188 790.738281 C 1057.859375 790.652344 1057.820312 790.578125 1057.753906 790.523438 C 1057.683594 790.464844 1057.605469 790.441406 1057.515625 790.445312 L 1057.148438 790.457031 C 1057.128906 790.457031 1057.117188 790.46875 1057.117188 790.488281 L 1056.824219 848.464844 C 1056.820312 848.648438 1056.757812 848.804688 1056.628906 848.933594 C 1056.5 849.0625 1056.347656 849.125 1056.167969 849.125 L 1009.160156 849.125 C 1008.949219 849.125 1008.761719 849.058594 1008.597656 848.921875 C 1008.433594 848.789062 1008.335938 848.617188 1008.296875 848.40625 L 1005.394531 832.5 C 1005.355469 832.28125 1005.226562 832.140625 1005.015625 832.074219 C 1004.800781 832.007812 1004.617188 832.050781 1004.457031 832.207031 C 998.082031 838.71875 992.03125 843.355469 986.308594 846.109375 C 945.761719 865.605469 896.703125 849.050781 877.808594 807.847656 C 872.75 796.8125 869.625 785.210938 868.433594 773.042969 C 868.410156 772.90625 868.328125 772.832031 868.1875 772.824219 C 868.046875 772.816406 867.960938 772.878906 867.917969 773.011719 L 850.648438 850.28125 C 850.59375 850.523438 850.472656 850.71875 850.28125 850.871094 C 850.089844 851.027344 849.871094 851.101562 849.625 851.101562 L 773.847656 851.101562 C 773.625 851.105469 773.429688 851.035156 773.257812 850.894531 C 773.082031 850.753906 772.972656 850.574219 772.925781 850.355469 L 753.707031 761.96875 C 753.695312 761.949219 753.683594 761.941406 753.667969 761.941406 C 753.652344 761.941406 753.652344 761.949219 753.660156 761.96875 L 732.507812 850.53125 C 732.472656 850.695312 732.386719 850.828125 732.253906 850.933594 C 732.125 851.039062 731.972656 851.089844 731.804688 851.089844 L 648.707031 851.089844 C 648.417969 851.089844 648.164062 850.996094 647.941406 850.816406 C 647.71875 850.632812 647.578125 850.402344 647.519531 850.121094 L 634.4375 789.960938 C 634.394531 789.753906 634.269531 789.648438 634.058594 789.636719 C 633.851562 789.625 633.714844 789.71875 633.648438 789.917969 C 633.207031 791.371094 632.089844 794.03125 630.292969 797.898438 C 619.597656 820.972656 600.058594 837.847656 576.429688 846.679688 C 525.6875 865.664062 462.992188 852.613281 437.210938 800.710938 C 437.167969 800.605469 437.089844 800.5625 436.976562 800.585938 C 436.863281 800.613281 436.808594 800.683594 436.816406 800.800781 L 436.816406 848.699219 C 436.816406 848.941406 436.734375 849.144531 436.566406 849.3125 C 436.402344 849.480469 436.203125 849.566406 435.964844 849.566406 L 363.5 849.566406 C 363.269531 849.566406 363.074219 849.480469 362.910156 849.316406 C 362.746094 849.152344 362.667969 848.949219 362.667969 848.714844 L 362.667969 771.519531 C 362.664062 771.382812 362.617188 771.261719 362.515625 771.167969 C 362.414062 771.070312 362.292969 771.019531 362.152344 771.019531 L 323.746094 771.019531 C 323.613281 771.019531 323.496094 771.066406 323.402344 771.160156 C 323.308594 771.257812 323.261719 771.371094 323.261719 771.503906 L 323.261719 848.746094 C 323.261719 848.988281 323.175781 849.195312 323.003906 849.367188 C 322.832031 849.539062 322.625 849.625 322.382812 849.625 L 250.929688 849.625 C 250.667969 849.625 250.449219 849.53125 250.265625 849.347656 C 250.082031 849.167969 249.992188 848.945312 249.992188 848.6875 L 249.992188 810.042969 C 250 809.996094 249.980469 809.964844 249.929688 809.957031 C 249.882812 809.949219 249.855469 809.964844 249.84375 810.015625 C 240.382812 831.445312 219.347656 844.351562 197.386719 850.019531 C 162.597656 859 114.625 856.976562 86.792969 831.707031 C 70.429688 816.855469 63.355469 795.542969 64.015625 773.847656 C 64.019531 773.6875 64.078125 773.554688 64.191406 773.441406 C 64.304688 773.332031 64.441406 773.277344 64.601562 773.277344 L 138.5 773.277344 C 138.613281 773.277344 138.722656 773.300781 138.824219 773.347656 C 138.925781 773.398438 139.015625 773.464844 139.089844 773.546875 C 139.164062 773.632812 139.21875 773.730469 139.25 773.839844 C 139.28125 773.949219 139.292969 774.058594 139.277344 774.167969 C 137.09375 791.265625 147.453125 799.613281 163.667969 796.1875 C 169.804688 794.882812 174.960938 790.179688 174.15625 783.398438 C 173.363281 776.734375 166.085938 772.691406 160.253906 770.757812 C 158.828125 770.289062 145.621094 766.042969 120.628906 758.027344 C 109.75 754.53125 100.3125 750.136719 92.316406 744.84375 C 58.023438 722.152344 62.476562 675.71875 90.761719 650.710938 C 108.195312 635.300781 131.5 628.855469 154.601562 627.816406 C 189.390625 626.25 232.808594 634.980469 249.433594 670.0625 C 249.5 670.191406 249.601562 670.242188 249.742188 670.210938 C 249.882812 670.179688 249.957031 670.089844 249.960938 669.945312 L 249.960938 633.777344 C 249.960938 633.535156 250.046875 633.328125 250.214844 633.15625 C 250.382812 632.984375 250.585938 632.898438 250.824219 632.898438 L 322.472656 632.898438 C 322.703125 632.898438 322.898438 632.980469 323.0625 633.144531 C 323.222656 633.308594 323.304688 633.503906 323.304688 633.734375 L 323.304688 713.394531 C 323.304688 713.539062 323.355469 713.664062 323.460938 713.765625 C 323.5625 713.871094 323.6875 713.921875 323.832031 713.921875 L 362.007812 713.921875 C 362.183594 713.921875 362.335938 713.859375 362.460938 713.734375 C 362.589844 713.613281 362.652344 713.464844 362.652344 713.289062 L 362.652344 633.75 C 362.652344 633.511719 362.734375 633.308594 362.898438 633.140625 C 363.066406 632.96875 363.265625 632.886719 363.5 632.886719 L 436.480469 632.886719 C 436.59375 632.886719 436.6875 632.925781 436.769531 633.011719 C 436.847656 633.09375 436.890625 633.191406 436.890625 633.308594 L 436.890625 687.070312 C 436.890625 687.207031 436.960938 687.292969 437.09375 687.324219 C 437.226562 687.355469 437.324219 687.308594 437.386719 687.1875 C 452.328125 655.824219 481.054688 634.292969 515.363281 629.382812 C 558.222656 623.230469 597.992188 638.054688 621.472656 675.585938 Z M 445.472656 744.226562 C 445.472656 743.828125 450.78125 744.65625 461.398438 746.71875 C 500.199219 754.246094 527.839844 783.660156 532.515625 823.550781 C 532.515625 823.59375 532.53125 823.625 532.558594 823.636719 C 532.578125 823.648438 532.597656 823.652344 532.617188 823.652344 C 532.636719 823.652344 532.652344 823.648438 532.660156 823.636719 C 532.691406 823.625 532.703125 823.59375 532.703125 823.550781 C 537.363281 783.660156 565.003906 754.234375 603.808594 746.6875 C 614.414062 744.628906 619.714844 743.792969 619.714844 744.183594 C 619.714844 744.585938 614.414062 743.753906 603.808594 741.695312 C 564.988281 734.164062 537.347656 704.75 532.675781 664.863281 C 532.679688 664.8125 532.667969 664.777344 532.632812 664.761719 C 532.613281 664.761719 532.597656 664.761719 532.585938 664.761719 C 532.566406 664.761719 532.546875 664.761719 532.527344 664.761719 C 532.496094 664.777344 532.480469 664.8125 532.484375 664.863281 C 527.828125 704.75 500.199219 734.179688 461.398438 741.722656 C 450.78125 743.785156 445.472656 744.617188 445.472656 744.226562 Z M 179.152344 706.128906 C 179.152344 705.394531 179.015625 703.316406 178.742188 699.886719 C 176.984375 677.828125 140.890625 681.285156 143.175781 695.828125 C 144.183594 702.246094 150.207031 705.175781 155.550781 706.949219 C 163.246094 709.476562 177.824219 714.03125 199.277344 720.613281 C 219.082031 726.695312 240.394531 736.902344 249.464844 756.472656 C 249.527344 756.605469 249.628906 756.652344 249.773438 756.621094 C 249.914062 756.589844 249.988281 756.503906 249.992188 756.355469 L 249.992188 707.652344 C 249.988281 707.480469 249.929688 707.335938 249.808594 707.214844 C 249.691406 707.097656 249.542969 707.035156 249.375 707.035156 L 180.058594 707.035156 C 179.808594 707.035156 179.59375 706.949219 179.417969 706.769531 C 179.238281 706.59375 179.152344 706.378906 179.152344 706.128906 Z M 989.589844 769.410156 L 966.796875 769.410156 C 966.550781 769.410156 966.339844 769.320312 966.164062 769.148438 C 965.992188 768.972656 965.902344 768.761719 965.902344 768.515625 L 965.902344 725.933594 C 965.902344 725.714844 965.980469 725.527344 966.136719 725.375 C 966.289062 725.21875 966.476562 725.140625 966.695312 725.140625 L 1057.632812 725.140625 C 1057.875 725.140625 1058.082031 725.054688 1058.253906 724.882812 C 1058.425781 724.710938 1058.511719 724.503906 1058.511719 724.261719 L 1058.511719 707.988281 C 1058.511719 707.726562 1058.417969 707.5 1058.230469 707.316406 C 1058.046875 707.128906 1057.820312 707.035156 1057.558594 707.035156 L 992.226562 707.035156 C 991.964844 707.035156 991.726562 706.953125 991.519531 706.789062 C 991.3125 706.625 991.175781 706.414062 991.113281 706.15625 C 990.730469 704.691406 990.378906 702.363281 990.085938 701.511719 C 986.433594 691.023438 979.34375 685.511719 968.816406 684.976562 C 949.378906 683.992188 941.585938 700.429688 939.226562 716.996094 C 937.421875 729.703125 937.089844 743.386719 938.230469 758.054688 C 939.273438 771.605469 943.125 789.433594 959.238281 792.640625 C 975.191406 795.820312 987.390625 786.371094 990.394531 770.390625 C 990.417969 770.269531 990.417969 770.148438 990.386719 770.03125 C 990.355469 769.910156 990.304688 769.804688 990.226562 769.707031 C 990.148438 769.613281 990.050781 769.539062 989.941406 769.488281 C 989.828125 769.433594 989.710938 769.410156 989.589844 769.410156 Z M 989.589844 769.410156 " fill-opacity="0.996" fill-rule="nonzero"/></svg>